<svg
                    className="w-5 h-5"
                    viewBox="0 0 533.5 544.3"
                    xmlns="http://www.w3.org/2000/svg"
                >
                    <path
                        d="M533.5 278.4c0-17.4-1.5-34-4.3-50.2H272v95h146.9c-6.4 34.3-25.5 63.5-54.4 83v68h87.9c51.3-47.3 81.1-116.6 81.1-195.8z"
                        fill="#4285F4"
                    />
                    <path
                        d="M272 544.3c73.6 0 135.5-24.4 180.7-66.1l-87.9-68c-24.5 16.4-55.9 26-92.8 26-71 0-131-47.8-152.5-111.8H28.1v70.6C73.3 489.8 167.1 544.3 272 544.3z"
                        fill="#34A853"
                    />
                    <path
                        d="M119.5 324.9c-10.5-31.4-10.5-65.5 0-96.9v-70.6H28.1C-5.2 243.1-5.2 301.2 28.1 382.3l91.4-57.4z"
                        fill="#FBBC05"
                    />
                    <path
                        d="M272 107.7c38.8 0 73.6 13.4 101.2 39.8l76-76.1C407.6 24.7 345.7 0 272 0 167.1 0 73.3 54.5 28.1 141.7l91.4 70.6C141 155.5 201 107.7 272 107.7z"
                        fill="#EA4335"
                    />
                </svg>