<?xml version="1.0" encoding="UTF-8"?>
<svg version="1.1" xmlns="http://www.w3.org/2000/svg" width="2251" height="561">
<path d="M0 0 C742.83 0 1485.66 0 2251 0 C2251 185.13 2251 370.26 2251 561 C1508.17 561 765.34 561 0 561 C0 375.87 0 190.74 0 0 Z " fill="#FDFDFD" transform="translate(0,0)"/>
<path d="M0 0 C1.23267304 1.01274679 2.43968382 2.05721517 3.625 3.125 C4.42164063 3.83011719 5.21828125 4.53523438 6.0390625 5.26171875 C12.65146523 11.464592 17.43340608 18.10006805 21.625 26.125 C22.22828125 27.259375 22.8315625 28.39375 23.453125 29.5625 C30.78764962 44.95127286 29.85912901 65.40938597 25.01953125 81.484375 C16.10295359 104.76238728 2.62863082 116.71798884 -19.57250977 127.44165039 C-21.375 128.125 -21.375 128.125 -24.375 128.125 C-24.54990411 134.13478222 -24.67593212 140.14303809 -24.75952148 146.15478516 C-24.79441597 148.19345958 -24.84195095 150.23196292 -24.90307617 152.27001953 C-25.31333379 166.31530965 -24.83653559 176.88857474 -15.70922852 188.18701172 C-14.19514208 189.7668263 -12.6453388 191.13481923 -10.9375 192.5 C-9.79831542 193.47911638 -8.6602917 194.45958503 -7.5234375 195.44140625 C-6.98170898 195.89789551 -6.43998047 196.35438477 -5.88183594 196.82470703 C-3.8329746 198.59272963 -1.94721226 200.49691683 -0.0625 202.4375 C2.95872318 205.50269108 6.10632456 208.34544408 9.3671875 211.15234375 C12.65591869 214.02571616 15.85992426 216.9900405 19.07250977 219.94775391 C22.13080772 222.761178 25.20972022 225.54801307 28.3125 228.3125 C33.04208133 232.55837415 37.68131541 236.8974727 42.3125 241.25 C43.02559326 241.91926514 43.73868652 242.58853027 44.47338867 243.27807617 C47.82841058 246.43971158 51.14634775 249.62689822 54.39453125 252.8984375 C56.72644816 255.246629 59.09533269 257.48786727 61.625 259.625 C64.85456367 262.40739332 67.85822653 265.33519429 70.84375 268.375 C72.70889674 270.20742487 74.64427746 271.91853135 76.625 273.625 C79.85456367 276.40739332 82.85822653 279.33519429 85.84375 282.375 C87.70889674 284.20742487 89.64427746 285.91853135 91.625 287.625 C94.23147609 289.8705794 96.71434521 292.17051512 99.125 294.625 C101.39512583 296.93575448 103.71624494 299.09401642 106.1875 301.1875 C110.20244868 304.63894711 113.90339023 308.36463368 117.625 312.125 C121.7560285 316.29436876 125.88907456 320.36153829 130.37109375 324.15625 C134.38519207 327.66249879 138.23707944 331.34700372 142.11669922 335.00073242 C145.3995579 338.08341679 148.70841045 341.07512767 152.1875 343.9375 C157.02071539 348.09533158 161.55982715 353.69884729 162.625 360.125 C163.34321361 371.09156935 162.79939248 381.31074638 155.625 390.125 C148.36967538 397.05053713 140.80031893 400.25178384 130.74670696 400.24804783 C129.56284741 400.25003888 128.37898786 400.25202993 127.15925378 400.25408131 C125.86256841 400.25116847 124.56588304 400.24825563 123.22990417 400.24525452 C121.83553098 400.24569063 120.44115786 400.24656628 119.04678518 400.24784368 C115.21574107 400.25008073 111.3847249 400.24607814 107.55368435 400.24106562 C103.42217263 400.23674999 99.29066251 400.23820834 95.15914917 400.2389679 C88.00120355 400.23949242 80.84326704 400.23635304 73.68532372 400.23073006 C63.3361199 400.22260545 52.98692049 400.21999885 42.63771383 400.21874207 C25.84709643 400.21655306 9.0564839 400.20989707 -7.73413086 400.20043945 C-24.04532853 400.19126142 -40.35652488 400.18419396 -56.66772461 400.17993164 C-57.68328314 400.17966364 -58.69884167 400.17939565 -59.74517471 400.17911953 C-67.6874267 400.17704012 -75.62967873 400.17508319 -83.57193077 400.17316496 C-122.50629163 400.16373009 -161.44064035 400.14361206 -200.375 400.125 C-200.375 329.835 -200.375 259.545 -200.375 187.125 C-188.165 187.125 -175.955 187.125 -163.375 187.125 C-163.375 247.185 -163.375 307.245 -163.375 369.125 C-67.015 368.795 29.345 368.465 128.625 368.125 C126.315 365.815 124.005 363.505 121.625 361.125 C120.4697661 359.83008528 119.32829979 358.52241532 118.21484375 357.19140625 C114.46908451 352.85426633 110.38498357 348.95773453 106.1875 345.0625 C105.47529297 344.39412109 104.76308594 343.72574219 104.02929688 343.03710938 C100.58171844 339.81498566 97.09874096 336.65083386 93.52734375 333.56640625 C89.0972586 329.71726227 85.01425757 325.56880683 80.9140625 321.375 C77.30077935 317.71266776 73.56323775 314.27729379 69.66943359 310.91552734 C66.17018855 307.85086731 62.81116739 304.63897346 59.4375 301.4375 C54.22117766 296.50377365 48.98346852 291.59810649 43.6875 286.75 C39.03477491 282.48607406 34.53698352 278.1008825 30.13671875 273.57421875 C27.42082502 270.92590558 24.58848205 268.45490115 21.72387695 265.9699707 C18.3657044 263.01804445 15.12376656 259.94621628 11.875 256.875 C6.87211238 252.16795367 1.86497872 247.46634859 -3.1875 242.8125 C-4.12207031 241.95011719 -5.05664062 241.08773437 -6.01953125 240.19921875 C-8.39074789 238.01802115 -8.39074789 238.01802115 -11.375 236.125 C-11.375 234.805 -11.375 233.485 -11.375 232.125 C-12.035 231.939375 -12.695 231.75375 -13.375 231.5625 C-19.58277013 228.58794348 -24.23125112 223.30258724 -29 218.4375 C-32.26022641 215.12642084 -35.37835568 212.48199537 -39.375 210.125 C-47.52174563 213.41503189 -53.11586306 219.17243304 -59.375 225.125 C-64.53567366 229.78407548 -69.86824999 234.24601729 -75.17993164 238.73095703 C-83.5539498 245.80351868 -91.87616355 252.93643775 -100.13745117 260.14038086 C-102.03422171 261.78793715 -103.94258879 263.42130243 -105.8515625 265.0546875 C-108.06395274 266.95560743 -110.19519894 268.89906922 -112.2734375 270.9453125 C-118.45003376 276.72341868 -122.84578638 278.09988921 -131.30859375 277.9296875 C-135.18302275 276.91295836 -136.23643553 275.43551783 -138.375 272.125 C-141.33066047 266.95259418 -141.18981438 260.82411305 -139.93359375 255.12109375 C-137.16423614 248.17595085 -130.59201609 243.45929447 -125.10644531 238.65527344 C-122.94767414 236.74732396 -120.84220354 234.78641539 -118.73583984 232.82104492 C-113.66948735 228.10349323 -108.42598357 223.6561882 -103.03515625 219.3125 C-99.48926759 216.39664442 -96.09725784 213.32822294 -92.703125 210.23828125 C-89.9989818 207.78368147 -87.24649191 205.38949098 -84.48828125 202.99609375 C-82.92583513 201.612708 -81.38462338 200.20525489 -79.85546875 198.78515625 C-74.09297642 193.43485937 -68.22400687 188.65446908 -61.80859375 184.1328125 C-59.30822509 182.06990802 -58.51574981 181.08609097 -57.375 178.125 C-57.0688372 175.31290404 -57.0688372 175.31290404 -57.10375977 172.19824219 C-57.09357315 171.00309998 -57.08338654 169.80795776 -57.07289124 168.57659912 C-57.07075119 167.28804016 -57.06861115 165.9994812 -57.06640625 164.671875 C-57.05529897 163.32911082 -57.04290389 161.98635674 -57.02928162 160.64361572 C-56.97402572 154.95277039 -56.94328525 149.26185247 -56.91870117 143.57080078 C-56.90273533 140.08414771 -56.87241938 136.59783956 -56.83393669 133.11136627 C-56.81676816 131.15070596 -56.81623264 129.18992248 -56.8160553 127.22918701 C-56.72676119 119.14410988 -56.40545092 112.71369187 -51 106.3125 C-46.06550568 102.2004214 -41.14040757 100.26476477 -35.125 98.3125 C-24.00885361 94.51887573 -14.88230135 89.33949004 -9.0546875 78.71875 C-4.54371838 67.74100697 -4.29264759 52.13529243 -7.875 40.8125 C-12.17169236 31.45292189 -18.93643595 25.85033705 -28.375 22.125 C-29.98375 21.4753125 -29.98375 21.4753125 -31.625 20.8125 C-42.62286217 18.79622527 -52.45473014 19.75505335 -62.375 25.125 C-63.71079562 26.45586649 -65.04443004 27.78890901 -66.375 29.125 C-67.07753906 29.27324219 -67.78007813 29.42148438 -68.50390625 29.57421875 C-69.12136719 29.75597656 -69.73882813 29.93773437 -70.375 30.125 C-71.58479367 32.20664516 -71.58479367 32.20664516 -72.3125 34.9375 C-72.64121094 36.00742188 -72.96992187 37.07734375 -73.30859375 38.1796875 C-74.14343036 41.16876382 -74.87913986 44.17630774 -75.59765625 47.1953125 C-75.91585327 48.52212036 -75.91585327 48.52212036 -76.24047852 49.87573242 C-76.65734272 51.64086921 -77.0606206 53.40928047 -77.44897461 55.1809082 C-79.54599993 64.19416044 -79.54599993 64.19416044 -83.375 67.125 C-87.05973719 67.82384285 -90.63595141 67.77687002 -94.375 67.6875 C-95.37273437 67.69845703 -96.37046875 67.70941406 -97.3984375 67.72070312 C-104.63199288 67.64797971 -104.63199288 67.64797971 -108 65.27734375 C-111.76264108 59.38752774 -111.22721961 51.72023777 -109.99267578 45.06347656 C-105.47081721 25.46725031 -94.2692814 6.67880176 -77.33984375 -4.72265625 C-52.46869251 -19.30911672 -23.26887577 -16.46648265 0 0 Z " fill="#296BF9" transform="translate(1301.375,69.875)"/>
<path d="M0 0 C13.2 0 26.4 0 40 0 C41.29320328 3.2330082 42.26797561 5.71098029 42.95800781 8.99462891 C43.118909 9.74901245 43.27981018 10.503396 43.44558716 11.28063965 C43.69681839 12.49137146 43.69681839 12.49137146 43.953125 13.7265625 C44.13374481 14.57835083 44.31436462 15.43013916 44.50045776 16.30773926 C44.88685301 18.13201936 45.27126357 19.95672075 45.65386963 21.78179932 C46.65888471 26.57514606 47.67833209 31.36543049 48.6953125 36.15625 C48.89579193 37.10283478 49.09627136 38.04941956 49.30282593 39.02468872 C50.86672665 46.40145888 52.47597034 53.76673915 54.125 61.125 C55.92732105 69.17030432 57.70309769 77.22053143 59.44995117 85.27807617 C62.30202131 98.42260171 65.2188185 111.5525583 68.21005249 124.6661377 C68.60983232 126.42224464 69.00749683 128.17883456 69.40298462 129.93591309 C69.95656662 132.39230691 70.51820738 134.84672095 71.08203125 137.30078125 C71.24634644 138.03676041 71.41066162 138.77273956 71.57995605 139.53102112 C72.35389455 142.86080997 73.08009128 145.12013692 75 148 C77.63779495 137.62803413 80.2724233 127.25526915 82.90330696 116.88154793 C84.12579357 112.06160593 85.34926067 107.24191782 86.57519531 102.42285156 C91.73481924 82.13780739 96.86365559 61.85980236 101.45098877 41.43603516 C110.14632726 2.85367274 110.14632726 2.85367274 113 0 C115.6662603 -0.08855161 118.30647114 -0.11524673 120.97265625 -0.09765625 C121.77029892 -0.0962413 122.56794159 -0.09482635 123.38975525 -0.09336853 C125.94737435 -0.08775316 128.50490718 -0.07519812 131.0625 -0.0625 C132.79231645 -0.05748698 134.52213426 -0.05292373 136.25195312 -0.04882812 C140.50133553 -0.03777875 144.75065312 -0.02050386 149 0 C151.68067687 7.39241872 153.4373883 14.91344803 155.13095093 22.57977295 C158.11454424 36.06335152 161.3075066 49.48558486 164.6875 62.875 C165.07487951 64.4113745 165.46224939 65.94775143 165.84960938 67.48413086 C166.40502078 69.68664549 166.96045545 71.88915402 167.51626587 74.09156799 C170.55220733 86.13821984 173.3581139 98.2377215 176.17221069 110.33766174 C179.70605664 125.59116293 179.70605664 125.59116293 183.375 140.8125 C183.67148438 142.01519531 183.96796875 143.21789062 184.2734375 144.45703125 C184.75306828 146.91494925 184.75306828 146.91494925 186 148 C189.43952836 139.37519054 191.69221965 130.59305892 193.75 121.5625 C194.09375253 120.07632243 194.43791869 118.59024047 194.7824707 117.10424805 C198.486238 101.07506496 202.04577426 85.01273467 205.57293701 68.94390869 C206.20425825 66.07025569 206.83883815 63.19732192 207.47265625 60.32421875 C209.21286904 52.40405267 210.91940711 44.48390141 212.4609375 36.52246094 C214.84393153 24.22171921 217.89448872 12.13972591 221 0 C233.87 0 246.74 0 260 0 C260 12.15274108 258.04706195 22.17275642 254.66113281 33.70727539 C252.14277525 42.34429263 249.86048987 51.03656623 247.625 59.75 C247.4344101 60.49217773 247.24382019 61.23435547 247.04745483 61.99902344 C244.00561331 73.8673757 241.09874159 85.76602972 238.24227905 97.68017578 C236.26715647 105.91203752 234.21156332 114.10162718 231.86450195 122.23583984 C229.48326633 130.60255891 227.5382829 139.07928625 225.51757812 147.53857422 C223.78188536 154.79373198 221.98876381 162.0173581 220.02734375 169.21484375 C218.65241279 174.28065402 217.32544243 179.35854879 216 184.4375 C215.7431543 185.41976562 215.48630859 186.40203125 215.22167969 187.4140625 C213.33215368 194.66327849 211.51925413 201.92866011 209.76171875 209.2109375 C209 212 209 212 208 213 C204.89748799 213.08874135 201.8173188 213.11518455 198.71484375 213.09765625 C197.78402481 213.0962413 196.85320587 213.09482635 195.8941803 213.09336853 C192.90858809 213.08775172 189.92306971 213.0751964 186.9375 213.0625 C184.91862087 213.05748716 182.89974057 213.05292388 180.88085938 213.04882812 C175.92054428 213.03777683 170.96028468 213.02050095 166 213 C162.85216534 201.33836261 159.83438186 189.64478498 156.84594727 177.94140625 C156.06903405 174.9005742 155.28945407 171.86043397 154.50976562 168.8203125 C151.39217911 156.63538537 148.39685221 144.42718577 145.51547241 132.18432617 C144.83458377 129.29904492 144.14129018 126.4168313 143.4453125 123.53515625 C140.32909995 110.619562 137.27904184 97.68965286 134.27197266 84.74829102 C133.99015137 83.53584717 133.70833008 82.32340332 133.41796875 81.07421875 C133.16813232 79.99744873 132.9182959 78.92067871 132.66088867 77.8112793 C132.12589355 75.53552429 131.57525098 73.26584022 131 71 C129.42082951 73.90068616 128.5168319 76.57327195 127.81079102 79.79492188 C127.48485207 81.25170349 127.48485207 81.25170349 127.15232849 82.73791504 C126.91772415 83.80409058 126.68311981 84.87026611 126.44140625 85.96875 C123.97643081 96.89936378 121.36445978 107.78477907 118.65234375 118.65625 C118.46179035 119.42019073 118.27123695 120.18413147 118.07490921 120.97122192 C117.095956 124.89281367 116.11461427 128.81380142 115.1315918 132.734375 C114.13115015 136.7246717 113.13502997 140.71603319 112.13999367 144.7076807 C104.99692749 173.34935235 104.99692749 173.34935235 101.52189636 185.57701111 C99.9237923 191.20175642 98.54398262 196.86116047 97.25 202.5625 C96.84181834 204.35621754 96.43054151 206.14923461 96.015625 207.94140625 C95.75700684 209.08138062 95.75700684 209.08138062 95.49316406 210.24438477 C95 212 95 212 94 213 C90.89748799 213.08874135 87.8173188 213.11518455 84.71484375 213.09765625 C83.78402481 213.0962413 82.85320587 213.09482635 81.8941803 213.09336853 C78.90858809 213.08775172 75.92306971 213.0751964 72.9375 213.0625 C70.91862087 213.05748716 68.89974057 213.05292388 66.88085938 213.04882812 C61.92054428 213.03777683 56.96028468 213.02050095 52 213 C45.85064592 197.61855632 42.24607757 181.5394715 38.37968445 165.47592163 C36.81706818 158.99903675 35.23151948 152.52769031 33.6498909 146.05542755 C33.23874001 144.37241566 32.82791188 142.68932488 32.41740036 141.00615692 C27.07881633 119.11827386 21.51981659 97.28675485 15.95429707 75.45569038 C15.00502761 71.73112158 14.05701921 68.0062326 13.109375 64.28125 C12.92894842 63.57264706 12.74852184 62.86404411 12.56262779 62.13396835 C9.92884883 51.78211359 7.37541081 41.41311104 4.95111084 31.0098877 C3.92014949 26.62654404 2.79829766 22.38622799 1.33496094 18.12695312 C0 13 0 13 0 0 Z " fill="#296CF9" transform="translate(30,257)"/>
<path d="M0 0 C11.88 0 23.76 0 36 0 C40.50492505 11.26231263 40.50492505 11.26231263 41.78125 16.3984375 C42.06355469 17.52628662 42.34585937 18.65413574 42.63671875 19.81616211 C42.92160156 20.99057861 43.20648437 22.16499512 43.5 23.375 C43.80550781 24.61451416 44.11101562 25.85402832 44.42578125 27.13110352 C46.29426929 34.80730956 47.96874874 42.49462581 49.43920898 50.25561523 C51.37348483 60.2818326 53.8833096 70.17552413 56.31640625 80.08984375 C56.87831586 82.39305565 57.43951615 84.69644072 58 87 C58.43675049 88.77914795 58.43675049 88.77914795 58.88232422 90.59423828 C59.15705566 91.74005371 59.43178711 92.88586914 59.71484375 94.06640625 C60.0859729 95.59890015 60.0859729 95.59890015 60.46459961 97.16235352 C60.97265727 99.85508231 61.10304438 102.2685408 61 105 C61.66 105 62.32 105 63 105 C63.15855469 104.27039063 63.31710937 103.54078125 63.48046875 102.7890625 C66.01557102 91.44412968 69.17308103 80.29069756 72.41015625 69.12890625 C75.58798388 58.15037285 78.54526381 47.13257303 81.38085938 36.06054688 C83.89101881 26.30502749 86.61075831 16.61873058 89.44677734 6.95336914 C90.00563655 4.98009796 90.50258771 2.98964916 91 1 C102.55 1 114.1 1 126 1 C129.58697267 11.41930158 132.83980537 21.80723469 135.67382812 32.45361328 C137.51979172 39.3472085 139.52718359 46.17901986 141.625 53 C143.80402931 60.08506868 145.95173454 67.1718391 147.95703125 74.30859375 C148.81547519 77.34690655 149.69054199 80.37913973 150.57421875 83.41015625 C150.85064209 84.36325684 151.12706543 85.31635742 151.41186523 86.29833984 C151.96180577 88.19405681 152.51460799 90.08894645 153.07055664 91.98291016 C153.44555298 93.28107666 153.44555298 93.28107666 153.828125 94.60546875 C154.0540332 95.38043701 154.27994141 96.15540527 154.51269531 96.95385742 C155 99 155 99 155 102 C155.66 102 156.32 102 157 102 C157.27328125 100.73800781 157.5465625 99.47601563 157.828125 98.17578125 C158.80165152 93.79405793 159.88810478 89.44847242 161.00366211 85.10107422 C163.5311712 75.23411526 165.83922043 65.34200372 167.9375 55.375 C169.94597796 45.84123774 172.02649758 36.32925941 174.23123169 26.83917236 C174.67376567 24.93412439 175.11317816 23.02835214 175.55249023 21.12255859 C175.96543335 19.3564624 175.96543335 19.3564624 176.38671875 17.5546875 C176.62608154 16.52843262 176.86544434 15.50217773 177.11206055 14.44482422 C178.27651117 9.92725525 179.65945591 5.4684803 181 1 C192.55 1 204.1 1 216 1 C213.28316353 14.47550891 210.10407508 27.77934386 206.734375 41.10546875 C205.21418308 47.12220208 203.7434223 53.14896277 202.3125 59.1875 C202.11076172 60.03683105 201.90902344 60.88616211 201.70117188 61.76123047 C200.7892125 65.61448456 199.8901565 69.47010721 199.015625 73.33203125 C197.04178811 81.99733666 194.75792952 90.53135953 192.28149414 99.06689453 C190.61463075 104.81848909 189.01479128 110.58149088 187.5 116.375 C187.20258911 117.51134888 187.20258911 117.51134888 186.89916992 118.6706543 C185.74038814 123.11705626 184.59874022 127.56771948 183.4609375 132.01953125 C183.06551758 133.55697998 183.06551758 133.55697998 182.66210938 135.12548828 C182.15168512 137.11113996 181.64494671 139.09774418 181.14257812 141.08544922 C180.90732422 141.99955566 180.67207031 142.91366211 180.4296875 143.85546875 C180.12393799 145.05659302 180.12393799 145.05659302 179.81201172 146.28198242 C178.72657638 149.91522103 177.33142901 153.44952264 176 157 C163.79 157 151.58 157 139 157 C130.24600226 126.02431568 130.24600226 126.02431568 126.3125 111.1875 C124.32525648 103.7155781 122.23302938 96.30122392 119.875 88.9375 C119.63217285 88.17824219 119.3893457 87.41898437 119.13916016 86.63671875 C118.18966422 83.67958856 117.23644529 80.72376681 116.27197266 77.77148438 C113.12281137 68.05748383 111.17935606 59.28851596 111 49 C110.01 49 109.02 49 108 49 C107.92523437 49.59941406 107.85046875 50.19882812 107.7734375 50.81640625 C105.39886136 67.18235752 100.30469267 83.11586336 95.61108398 98.93310547 C93.22976186 107.03209836 91.14636986 115.18595864 89.13769531 123.38427734 C86.3671206 134.6703499 83.19229486 145.826968 80 157 C67.46 157 54.92 157 42 157 C36.37692222 143.50461333 36.37692222 143.50461333 35.12109375 138.23046875 C34.83943359 137.07353516 34.55777344 135.91660156 34.26757812 134.72460938 C33.99365234 133.55736328 33.71972656 132.39011719 33.4375 131.1875 C32.87497616 128.84734862 32.3111679 126.50750562 31.74609375 124.16796875 C31.46314453 122.99226318 31.18019531 121.81655762 30.88867188 120.60522461 C29.51442225 115.03007512 28.02078046 109.48824051 26.52407837 103.94491577 C25.62607547 100.61232259 24.73887181 97.27685979 23.8515625 93.94140625 C23.67122467 93.26351044 23.49088684 92.58561462 23.30508423 91.88717651 C22.74461025 89.77906917 22.18469028 87.67081554 21.625 85.5625 C21.42957611 84.8266568 21.23415222 84.0908136 21.0328064 83.33267212 C18.29319763 73.00681864 15.64845111 62.66284843 13.1003418 52.2878418 C11.52561443 45.93689786 9.77959781 39.65314614 7.9375 33.375 C0 6.31262283 0 6.31262283 0 0 Z " fill="#296DF9" transform="translate(1504,313)"/>
<path d="M0 0 C12.02108758 10.4350217 19.227736 23.51110268 20.62597656 39.52670288 C21.06482358 47.63609554 21.08368924 55.75385026 21.12792969 63.87304688 C21.15577588 66.46852091 21.18501065 69.06398039 21.21557617 71.65942383 C21.30165124 79.66810354 21.34646069 87.67650452 21.37792969 95.68554688 C21.38310608 96.98621094 21.38828247 98.286875 21.39361572 99.62695312 C21.4516695 115.64677948 21.43848329 131.665756 21.37792969 147.68554688 C9.82792969 147.68554688 -1.72207031 147.68554688 -13.62207031 147.68554688 C-14.61207031 142.40554688 -15.60207031 137.12554687 -16.62207031 131.68554688 C-17.94207031 133.33554687 -19.26207031 134.98554688 -20.62207031 136.68554688 C-32.40099743 147.25462295 -46.42481261 150.77692368 -61.83300781 150.08007812 C-78.4113624 148.91003521 -90.04423526 143.47901799 -101.70410156 131.55664062 C-110.5083271 121.14118427 -113.66099686 108.02833206 -112.62207031 94.68554688 C-109.88698229 81.32315902 -101.40597755 70.33423555 -90.64550781 62.18945312 C-85.83108837 59.20600015 -80.56921191 57.57260983 -75.18457031 55.93554688 C-74.49298828 55.72446289 -73.80140625 55.51337891 -73.08886719 55.29589844 C-64.56934981 52.86915097 -55.92745765 52.53113523 -47.11425781 52.58789062 C-46.26276154 52.58930557 -45.41126526 52.59072052 -44.53396606 52.59217834 C-41.85496272 52.59770768 -39.17604774 52.61024614 -36.49707031 52.62304688 C-34.6637382 52.62807103 -32.83040476 52.63263232 -30.99707031 52.63671875 C-26.53870373 52.64765381 -22.08040192 52.66486816 -17.62207031 52.68554688 C-17.89648343 49.9510079 -18.18335963 47.21875151 -18.47753906 44.48632812 C-18.55355347 43.7158313 -18.62956787 42.94533447 -18.70788574 42.15148926 C-19.52521219 34.73191515 -21.78684829 30.38246538 -27.18457031 25.24804688 C-34.3581574 20.64959361 -45.46129504 21.90027111 -53.62207031 22.68554688 C-59.21976403 24.1782652 -62.50725357 26.25629464 -66.05957031 30.81054688 C-66.57519531 31.75929688 -67.09082031 32.70804687 -67.62207031 33.68554688 C-68.73657227 35.34692383 -68.73657227 35.34692383 -70.62207031 36.68554688 C-73.28041659 36.9470881 -75.69892136 37.0349381 -78.35253906 36.97851562 C-79.10295975 36.97427078 -79.85338043 36.97002594 -80.62654114 36.96565247 C-83.02125057 36.94887138 -85.41511565 36.91122178 -87.80957031 36.87304688 C-89.43390711 36.85799923 -91.05825711 36.84431096 -92.68261719 36.83203125 C-96.66275979 36.79896993 -100.64227194 36.74719281 -104.62207031 36.68554688 C-104.62207031 33.71554687 -104.62207031 30.74554688 -104.62207031 27.68554688 C-103.96207031 27.68554688 -103.30207031 27.68554688 -102.62207031 27.68554688 C-102.59113281 26.29335938 -102.59113281 26.29335938 -102.55957031 24.87304688 C-101.04178332 14.72028253 -92.46548116 6.53595988 -84.62207031 0.68554688 C-60.55139327 -15.34255798 -23.81574406 -19.29921222 0 0 Z " fill="#296DF9" transform="translate(579.6220703125,322.314453125)"/>
<path d="M0 0 C4.33130624 3.09923379 7.55876144 6.60004304 10.6640625 10.90625 C11.49357422 12.04707031 11.49357422 12.04707031 12.33984375 13.2109375 C20.77757429 25.98268845 21.26651651 39.60901386 21.2734375 54.35546875 C21.28848291 56.22135301 21.30522285 58.08722428 21.32354736 59.95307922 C21.36695591 64.8432782 21.38712769 69.73330013 21.40228271 74.62365723 C21.42167406 79.51288946 21.46392769 84.40191635 21.50390625 89.29101562 C21.65754606 109.16233671 21.70847006 129.03437926 21.6640625 148.90625 C17.00098051 148.93093646 12.33793642 148.94910349 7.67480469 148.96118164 C6.08788389 148.96621588 4.50096773 148.97304369 2.9140625 148.98168945 C0.63540501 148.99379482 -1.64319126 148.99948733 -3.921875 149.00390625 C-4.98914322 149.01164818 -4.98914322 149.01164818 -6.07797241 149.01954651 C-11.10819409 149.02012171 -11.10819409 149.02012171 -13.3359375 147.90625 C-13.97395586 145.3746634 -14.50281118 142.90785498 -14.9609375 140.34375 C-15.095 139.63283203 -15.2290625 138.92191406 -15.3671875 138.18945312 C-15.69785597 136.42982447 -16.01789517 134.66820452 -16.3359375 132.90625 C-17.08746094 133.6590625 -17.83898438 134.411875 -18.61328125 135.1875 C-19.51175781 136.0846875 -20.41023438 136.981875 -21.3359375 137.90625 C-21.93535156 138.5146875 -22.53476563 139.123125 -23.15234375 139.75 C-33.96821826 150.009353 -47.07438762 151.40302884 -61.29296875 151.18359375 C-72.58377124 150.75090523 -83.2286796 147.76853699 -92.3359375 140.90625 C-93.11453125 140.31972656 -93.893125 139.73320312 -94.6953125 139.12890625 C-105.27095716 130.45190921 -110.21605745 120.01473755 -111.578125 106.50390625 C-111.91266682 96.22603806 -109.71111577 86.6625888 -104.3359375 77.90625 C-103.87703125 77.14570313 -103.418125 76.38515625 -102.9453125 75.6015625 C-95.5064837 64.74387804 -82.31295649 58.16212828 -69.74560547 55.32055664 C-58.87563755 53.4010694 -48.02442104 53.68507645 -37.0234375 53.78125 C-35.01107218 53.79130291 -32.99870198 53.80042466 -30.98632812 53.80859375 C-26.1027421 53.83041714 -21.21939493 53.86481885 -16.3359375 53.90625 C-16.62452267 51.51199211 -16.92124325 49.11921089 -17.22265625 46.7265625 C-17.34296204 45.71783081 -17.34296204 45.71783081 -17.46569824 44.6887207 C-18.50085463 36.59028962 -20.81184491 30.12552407 -27.3359375 24.90625 C-31.9577735 23.39209581 -36.77251239 23.6436818 -41.5859375 23.59375 C-42.50246094 23.56474609 -43.41898438 23.53574219 -44.36328125 23.50585938 C-51.76995807 23.4371812 -56.81673054 25.0553245 -62.578125 29.72265625 C-63.11695313 30.29886719 -63.65578125 30.87507813 -64.2109375 31.46875 C-64.76523438 32.04753906 -65.31953125 32.62632812 -65.890625 33.22265625 C-67.52222755 35.05450469 -67.52222755 35.05450469 -69.3359375 37.90625 C-72.03134065 38.17311213 -74.49441214 38.25443073 -77.1875 38.19921875 C-77.96153168 38.19497391 -78.73556335 38.19072906 -79.53305054 38.18635559 C-82.00936427 38.16953998 -84.48486908 38.13188395 -86.9609375 38.09375 C-88.63800909 38.07870682 -90.31509342 38.06501778 -91.9921875 38.05273438 C-96.10708331 38.01962721 -100.22137319 37.96782637 -104.3359375 37.90625 C-101.14151986 21.15913621 -95.2689585 9.40308677 -81.3359375 -1.09375 C-57.61177624 -17.05522614 -23.72281991 -13.97623498 0 0 Z " fill="#296CF9" transform="translate(1995.3359375,321.09375)"/>
<path d="M0 0 C1.19818359 -0.01224609 2.39636719 -0.02449219 3.63085938 -0.03710938 C20.41575042 -0.064853 36.93242364 5.70139394 49.09326172 17.55810547 C70.09661212 39.07634904 69.6875 61.01820434 69.6875 91.1875 C19.6925 91.6825 19.6925 91.6825 -31.3125 92.1875 C-28.17579072 105.06932753 -28.17579072 105.06932753 -22.3125 116.1875 C-21.93351562 116.75984375 -21.55453125 117.3321875 -21.1640625 117.921875 C-17.6110034 122.73877392 -12.8426389 125.22766296 -7.171875 126.76953125 C1.65624809 128.05998094 13.28844192 129.37922242 21.1875 124.6875 C21.7959375 124.2234375 22.404375 123.759375 23.03125 123.28125 C24.6875 122.1875 24.6875 122.1875 28.6875 122.1875 C29.3475 120.2075 30.0075 118.2275 30.6875 116.1875 C42.5675 116.1875 54.4475 116.1875 66.6875 116.1875 C61.86680067 132.25649777 54.83100661 143.84716666 40.23828125 152.66796875 C22.70846513 161.84218814 -0.44017049 164.79200226 -19.8359375 160.3515625 C-35.50639273 155.10460109 -52.4983812 141.98482451 -60.3125 127.1875 C-67.26193382 112.08434414 -71.7599773 99.09521403 -71.75 82.375 C-71.75040283 81.68630829 -71.75080566 80.99761658 -71.7512207 80.28805542 C-71.67010453 56.19690102 -64.2862274 35.29516056 -47.12890625 17.984375 C-33.13040258 4.9091238 -18.81231085 0.01002254 0 0 Z " fill="#296CF9" transform="translate(1798.3125,310.8125)"/>
<path d="M0 0 C12.21 0 24.42 0 37 0 C37.66 23.43 38.32 46.86 39 71 C42.63 67.37 46.26 63.74 50 60 C53.53119184 57.93296087 56.27609157 56.38968011 60 55 C60.63389648 54.74323486 61.26779297 54.48646973 61.92089844 54.22192383 C68.0249999 51.92236849 73.51802813 51.5755875 80 51.6875 C80.93328125 51.68427734 81.8665625 51.68105469 82.828125 51.67773438 C97.66258922 51.79168626 112.37095233 56.29609988 123 67 C125.65894497 70.17028054 127.89651496 73.43982344 130 77 C130.39960937 77.66128906 130.79921875 78.32257813 131.2109375 79.00390625 C138.37520882 92.76684853 137.42962633 110.55810513 137.328125 125.609375 C137.32505565 127.63519143 137.32318849 129.66100999 137.32244873 131.68682861 C137.31788679 135.89888807 137.30361997 140.11075195 137.28125 144.32275391 C137.25289836 149.68376304 137.24202544 155.04461984 137.2375679 160.40569687 C137.2323816 165.57777523 137.2178853 170.74981675 137.203125 175.921875 C137.20124428 176.88707817 137.19936356 177.85228134 137.19742584 178.84673309 C137.19044469 181.61759778 137.17676186 184.38835177 137.16113281 187.15917969 C137.16001495 187.9501857 137.15889709 188.74119171 137.15774536 189.5561676 C137.10465929 196.76814935 136.51768238 203.7524467 136 211 C123.46 211 110.92 211 98 211 C97.9906543 207.97295898 97.98130859 204.94591797 97.97167969 201.82714844 C97.93781632 191.79274344 97.88221536 181.75854206 97.81609726 171.72430038 C97.77669523 165.64431475 97.74447098 159.56447237 97.72900391 153.484375 C97.71378957 147.60975717 97.67925895 141.7355334 97.63169098 135.86109161 C97.61692643 133.62701098 97.60896183 131.39287407 97.60811615 129.15874481 C97.78163881 112.63226886 97.78163881 112.63226886 93 97 C92.66305115 96.26328064 92.32610229 95.52656128 91.97894287 94.76751709 C90.67510899 92.41339743 89.46879313 92.02866381 87 91 C86.030625 90.484375 85.06125 89.96875 84.0625 89.4375 C76.19631657 85.74520982 64.79748983 85.50138741 56.35546875 87.68359375 C54.36890409 88.62789766 52.74112839 89.65970692 51 91 C50.08541016 91.63615234 50.08541016 91.63615234 49.15234375 92.28515625 C44.30539364 95.97954073 41.01434118 100.23206192 39 106 C38.26854258 111.91992807 38.30132053 117.79646951 38.328125 123.75390625 C38.31751515 125.49960327 38.30459152 127.24528759 38.28948975 128.99095154 C38.25536702 133.58326533 38.24990223 138.17515492 38.25140381 142.76757812 C38.24774763 150.04687944 38.19557445 157.32612928 38.15449524 164.60529709 C38.14072679 167.23446943 38.13038779 169.86363895 38.1204834 172.49282837 C38.06323614 185.3540749 37.66131144 198.15242534 37 211 C24.79 211 12.58 211 0 211 C0 141.37 0 71.74 0 0 Z " fill="#2C6EF9" transform="translate(936,259)"/>
<path d="M0 0 C11.88 0 23.76 0 36 0 C36.66 23.43 37.32 46.86 38 71 C40.97 67.7 43.94 64.4 47 61 C52.39547393 57.03769883 57.57014127 54.76007209 64 53 C65.22203125 52.649375 66.4440625 52.29875 67.703125 51.9375 C72.23483511 50.82197778 76.59824099 50.65438466 81.25 50.6875 C82.084104 50.69313965 82.91820801 50.6987793 83.77758789 50.70458984 C98.57864037 50.99387989 111.95643371 56.05572266 122.7421875 66.390625 C132.53191661 77.70470639 135.49160418 91.42659743 135.34057617 106.01074219 C135.34101425 107.14390869 135.34145233 108.2770752 135.34190369 109.44458008 C135.33983363 113.14552773 135.31658696 116.84600766 135.29296875 120.546875 C135.28736646 123.1304703 135.28309936 125.71406881 135.28010559 128.29766846 C135.2698683 134.37473567 135.24628682 140.4516133 135.21605712 146.52860951 C135.18236059 153.45497207 135.16598904 160.38134308 135.15097082 167.30776739 C135.11973194 181.53861408 135.06478179 195.7692674 135 210 C122.46 210 109.92 210 97 210 C96.9906543 207.03878174 96.98130859 204.07756348 96.97167969 201.02661133 C96.93779655 191.20375464 96.88218482 181.38110553 96.81609726 171.55841541 C96.77671706 165.60737373 96.74448222 159.65647793 96.72900391 153.70532227 C96.71377504 147.95388953 96.67921917 142.20285813 96.63169098 136.45160484 C96.61694127 134.26579988 96.6089627 132.07993759 96.60811615 129.89408302 C96.97204926 109.57901768 96.97204926 109.57901768 88.796875 91.43359375 C82.58567483 86.47813623 74.18682873 84.21995344 66.33203125 84.71484375 C65.56246094 84.80894531 64.79289062 84.90304687 64 85 C62.86111328 85.12568359 62.86111328 85.12568359 61.69921875 85.25390625 C52.81463906 86.71165249 46.41480095 91.73189613 41.19140625 98.875 C38.41186354 103.83261061 37.74457563 108.41784104 37.69702148 114.0456543 C37.68436249 115.06456001 37.68436249 115.06456001 37.67144775 116.10404968 C37.64573708 118.34411394 37.6335186 120.58404482 37.62109375 122.82421875 C37.60487164 124.41006955 37.58768695 125.99591076 37.56959534 127.58174133 C37.5239366 131.76837562 37.4891888 135.95502471 37.45739746 140.14178467 C37.39944067 147.5568764 37.32304097 154.97180412 37.24609375 162.38671875 C37.23820202 163.18413357 37.23031029 163.98154839 37.22217941 164.80312729 C37.07599896 179.21889364 36.61309091 193.59489699 36 208 C24.12 208 12.24 208 0 208 C0 139.36 0 70.72 0 0 Z " fill="#286CF9" transform="translate(313,260)"/>
<path d="M0 0 C0.89460937 -0.00386719 1.78921875 -0.00773437 2.7109375 -0.01171875 C11.62196569 0.00123333 19.64604893 0.71684277 28.0625 3.75 C28.79968262 4.01433838 29.53686523 4.27867676 30.29638672 4.55102539 C44.17315664 9.76738641 54.85373343 20.15347557 61.73046875 33.2265625 C64.01150859 38.60253433 63.625 41.83690969 63.625 48.125 C51.415 48.125 39.205 48.125 26.625 48.125 C24.975 44.825 23.325 41.525 21.625 38.125 C17.44871351 34.92753066 13.94628289 32.51436216 8.625 32.125 C8.01527344 32.07472656 7.40554688 32.02445312 6.77734375 31.97265625 C-1.52223951 31.59608714 -12.59109307 32.85028256 -19.265625 38.203125 C-21.94802413 42.85009815 -21.06623289 48.99274871 -20.375 54.125 C-19.78752857 56.2741029 -19.78752857 56.2741029 -18.375 58.125 C-15.82480407 59.36262576 -15.82480407 59.36262576 -12.72265625 60.140625 C-10.96332764 60.6365918 -10.96332764 60.6365918 -9.16845703 61.14257812 C-4.0817986 62.4599107 1.01855559 63.71046818 6.13305664 64.91455078 C17.00299952 67.4777601 27.78351099 70.12495542 38.1875 74.25 C38.95843994 74.5500293 39.72937988 74.85005859 40.52368164 75.15917969 C48.57813855 78.54460971 53.96588251 83.93795437 58.9375 91 C59.36611328 91.57363281 59.79472656 92.14726562 60.23632812 92.73828125 C67.0347866 102.26248673 66.75455208 114.08694744 65 125.3125 C62.23720051 136.87462664 54.78568313 146.48683025 44.875 152.90625 C41.8489531 154.51794889 38.80443415 155.84333815 35.625 157.125 C34.54734375 157.61097656 33.4696875 158.09695313 32.359375 158.59765625 C12.16376634 166.44421849 -12.42438188 164.05930324 -31.99609375 155.55078125 C-44.76624375 149.21737738 -54.01587607 139.84324786 -60.375 127.125 C-61.86 120.195 -61.86 120.195 -63.375 113.125 C-50.175 113.125 -36.975 113.125 -23.375 113.125 C-21.395 116.755 -19.415 120.385 -17.375 124.125 C-14.14388504 126.35492441 -11.89463866 127.75694257 -8.375 129.125 C-7.281875 129.558125 -6.18875 129.99125 -5.0625 130.4375 C5.18453503 132.34796416 13.44395356 131.22558136 22.625 126.125 C25.23865349 123.85600411 26.45360395 122.20638536 27.00390625 118.734375 C27.4585954 113.12148821 27.4585954 113.12148821 25.15625 108.20703125 C23.02365048 106.56103678 21.03993104 105.33425967 18.625 104.125 C17.7431604 103.66528809 17.7431604 103.66528809 16.84350586 103.19628906 C10.48729239 100.09786664 3.92614203 98.64734916 -2.96194458 97.17584229 C-42.36383445 88.68253926 -42.36383445 88.68253926 -53 73.5625 C-59.82182189 61.82404972 -61.69760577 46.97652681 -58.375 33.75 C-53.698541 20.86229373 -42.44180917 10.98892693 -30.375 5.125 C-20.23548241 1.33475176 -10.75877 -0.04610901 0 0 Z " fill="#2A6CF9" transform="translate(848.375,309.875)"/>
<path d="M0 0 C12.54 0 25.08 0 38 0 C38 12.21 38 24.42 38 37 C47.9 37 57.8 37 68 37 C68 48.22 68 59.44 68 71 C58.1 71 48.2 71 38 71 C38.08557067 81.19682328 38.17935677 91.39348072 38.28752708 101.5900898 C38.33743044 106.32500413 38.38376101 111.0598968 38.421875 115.79492188 C38.4588031 120.36618111 38.50518347 124.93725644 38.55806351 129.508358 C38.57656749 131.25058637 38.59169015 132.9928541 38.60334396 134.73514175 C38.62027496 137.1792501 38.64932608 139.62294092 38.68115234 142.06689453 C38.68331253 142.78403122 38.68547272 143.50116791 38.68769836 144.24003601 C38.78281968 149.97421645 39.81626266 154.224394 43 159 C50.90782557 161.8468172 58.36962781 161.46060174 67 162 C67 172.89 67 183.78 67 195 C62.05519166 195.09242632 57.11344479 195.17187493 52.16845703 195.21972656 C50.49061869 195.23969699 48.81284864 195.26688332 47.13525391 195.30175781 C29.26017244 195.66373087 29.26017244 195.66373087 21 191 C20.09765625 190.51917969 19.1953125 190.03835938 18.265625 189.54296875 C8.55475443 183.01259649 3.43610422 175.32633714 0.44581604 163.87837219 C-0.16541122 159.93203698 -0.1307365 156.06626641 -0.11352539 152.07885742 C-0.11367142 151.19055237 -0.11381744 150.30224731 -0.1139679 149.38702393 C-0.11327293 146.45981376 -0.1055 143.53266775 -0.09765625 140.60546875 C-0.09579059 138.57237279 -0.09436739 136.53927638 -0.09336853 134.50617981 C-0.08955499 129.16161859 -0.07973462 123.81708464 -0.06866455 118.47253418 C-0.05842543 113.01619842 -0.05386555 107.55985823 -0.04882812 102.10351562 C-0.03811132 91.40232985 -0.02052392 80.70117146 0 70 C-6.93 70 -13.86 70 -21 70 C-21 59.44 -21 48.88 -21 38 C-14.07 38 -7.14 38 0 38 C0 25.46 0 12.92 0 0 Z " fill="#2A6DF9" transform="translate(637,275)"/>
<path d="M0 0 C1.04075684 0.00499512 2.08151367 0.00999023 3.15380859 0.01513672 C5.10794678 0.04244873 5.10794678 0.04244873 7.1015625 0.0703125 C11.2678125 0.1115625 15.4340625 0.1528125 19.7265625 0.1953125 C19.7265625 11.4153125 19.7265625 22.6353125 19.7265625 34.1953125 C6.9765625 34.3203125 6.9765625 34.3203125 3.03613281 34.31298828 C-5.46759584 34.51729364 -12.22236855 36.297772 -19.2734375 41.1953125 C-25.09044802 47.72054061 -27.50303482 54.54543355 -27.57641602 63.27270508 C-27.58907501 64.29642967 -27.58907501 64.29642967 -27.60198975 65.34083557 C-27.62769412 67.59051281 -27.63991497 69.84005741 -27.65234375 72.08984375 C-27.66856278 73.68048581 -27.68574718 75.27111829 -27.70384216 76.86174011 C-27.74949329 81.05900487 -27.78425147 85.25628426 -27.81604004 89.45367432 C-27.87401016 96.89501109 -27.95016232 104.33618571 -28.02734375 111.77734375 C-28.03523548 112.57481144 -28.04312721 113.37227913 -28.05125809 114.19391251 C-28.19025112 127.8793989 -28.63439268 141.52186586 -29.2734375 155.1953125 C-41.1534375 155.1953125 -53.0334375 155.1953125 -65.2734375 155.1953125 C-65.2734375 104.3753125 -65.2734375 53.5553125 -65.2734375 1.1953125 C-53.3934375 1.1953125 -41.5134375 1.1953125 -29.2734375 1.1953125 C-28.6134375 5.8153125 -27.9534375 10.4353125 -27.2734375 15.1953125 C-26.2834375 13.9784375 -25.2934375 12.7615625 -24.2734375 11.5078125 C-17.73956933 4.04996297 -10.06155573 -0.09961936 0 0 Z " fill="#286BF9" transform="translate(2109.2734375,312.8046875)"/>
<path d="M0 0 C2.27286851 0.03173636 4.54504499 0.04104101 6.81811523 0.046875 C17.88619924 0.11691213 17.88619924 0.11691213 19.05053711 1.28125 C20.40430583 18.78354558 20.40430583 18.78354558 15.64819336 24.71875 C5.23866744 34.89921545 -7.23421444 38.68227872 -21.56274414 38.5625 C-28.40635164 37.99417273 -32.48792299 34.39889871 -36.94946289 29.28125 C-38.77603037 23.80154756 -38.53866021 17.98575134 -37.94946289 12.28125 C-35.82446289 9.15625 -35.82446289 9.15625 -32.94946289 7.28125 C-32.10383789 6.58 -31.25821289 5.87875 -30.38696289 5.15625 C-20.84690795 -0.04741633 -10.58061467 -0.14940085 0 0 Z " fill="#F9FBFD" transform="translate(1960.949462890625,401.71875)"/>
<path d="M0 0 C1.08172485 0.00424484 1.08172485 0.00424484 2.18530273 0.00857544 C4.45704747 0.01964554 6.72837727 0.04472355 9 0.0703125 C10.55337967 0.0803594 12.1067656 0.08948223 13.66015625 0.09765625 C17.44026062 0.11954139 21.22006032 0.15397736 25 0.1953125 C28.10248576 18.19886878 28.10248576 18.19886878 23.5625 24.6953125 C16.19019701 32.81527829 6.19040411 37.65985687 -4.671875 38.46875 C-13.85987395 38.78596407 -20.58045484 38.00563478 -27.66796875 31.71484375 C-31.20676038 27.67792309 -30.44913315 21.69910764 -30.40234375 16.65625 C-29.90850303 12.40826086 -28.92593084 10.39917293 -25.8359375 7.51953125 C-18.02882031 1.88844034 -9.55792628 -0.14497565 0 0 Z " fill="#F8FAFD" transform="translate(537,401.8046875)"/>
<path d="M0 0 C5.52772678 4.67667168 11.07544532 10.13612738 13.36328125 17.1484375 C13.36328125 20.7784375 13.36328125 24.4084375 13.36328125 28.1484375 C-7.75671875 28.1484375 -28.87671875 28.1484375 -50.63671875 28.1484375 C-50.63671875 17.23040631 -47.38601831 11.10672154 -39.8671875 3.28125 C-29.46190036 -6.66846415 -12.02299897 -8.44281705 0 0 Z " fill="#FAFBFD" transform="translate(1817.63671875,346.8515625)"/>
<path d="M0 0 C0.99 0.33 1.98 0.66 3 1 C4.13107701 3.92290166 4.1236168 6.77808116 4.12025452 9.88482666 C4.12162918 10.86636719 4.12300385 11.84790771 4.12442017 12.85919189 C4.11902725 14.46464874 4.11902725 14.46464874 4.11352539 16.10253906 C4.11367142 17.23453735 4.11381744 18.36653564 4.1139679 19.53283691 C4.11327084 23.27711905 4.10548804 27.02135154 4.09765625 30.765625 C4.09579134 33.36065646 4.09436778 35.95568828 4.09336853 38.55072021 C4.08993958 44.68464195 4.08205683 50.81854318 4.07201904 56.95245719 C4.06083806 63.93669512 4.05534245 70.9209339 4.05032361 77.90517855 C4.03987369 92.27013018 4.02153614 106.63506081 4 121 C-8.21 121 -20.42 121 -33 121 C-33 87.01 -33 53.02 -33 18 C-32.34 18 -31.68 18 -31 18 C-29.66135719 22.01592843 -29.86932228 25.87474284 -29.88647461 30.0612793 C-29.88632858 30.98830658 -29.88618256 31.91533386 -29.8860321 32.87045288 C-29.88672946 35.93839854 -29.89451363 39.00628368 -29.90234375 42.07421875 C-29.90420856 44.1998542 -29.90563216 46.32549007 -29.90663147 48.4511261 C-29.91045171 54.04889103 -29.92027781 59.64663007 -29.93133545 65.24438477 C-29.94156016 70.95523732 -29.94613137 76.66609406 -29.95117188 82.37695312 C-29.96190049 93.5846468 -29.97897103 104.79232125 -30 116 C-28.9644397 116.03758423 -28.9644397 116.03758423 -27.90795898 116.07592773 C-24.75098591 116.1926566 -21.59425543 116.31503178 -18.4375 116.4375 C-17.35146484 116.47681641 -16.26542969 116.51613281 -15.14648438 116.55664062 C-14.08623047 116.59853516 -13.02597656 116.64042969 -11.93359375 116.68359375 C-10.96478271 116.72025146 -9.99597168 116.75690918 -8.99780273 116.79467773 C-5.63194702 117.02520829 -2.33368836 117.48838535 1 118 C0.97021844 117.39292458 0.94043688 116.78584915 0.90975285 116.1603775 C0.18803496 101.12768928 -0.1386989 86.14229408 -0.09765625 71.09375 C-0.09578317 69.02054886 -0.0943635 66.94734726 -0.09336853 64.87414551 C-0.08961327 59.50849103 -0.07984591 54.14286513 -0.06866455 48.77722168 C-0.05829693 43.26554755 -0.05383859 37.75386864 -0.04882812 32.2421875 C-0.03821472 21.49477935 -0.0212264 10.74739208 0 0 Z " fill="#1A60F9" transform="translate(444,349)"/>
<path d="M0 0 C11.55 0 23.1 0 35 0 C35 2.31 35 4.62 35 7 C34.01 6.34 33.02 5.68 32 5 C25.21927291 3.82581446 18.36680587 3.68802342 11.5 3.4375 C10.39140625 3.39431641 9.2828125 3.35113281 8.140625 3.30664062 C5.42718494 3.20137786 2.71366583 3.09924154 0 3 C0 2.01 0 1.02 0 0 Z " fill="#1558F8" transform="translate(144,257)"/>
<path d="M0 0 C0.99 0 1.98 0 3 0 C3 1.98 3 3.96 3 6 C3.66531738 5.98952637 4.33063477 5.97905273 5.01611328 5.96826172 C8.0523699 5.92649535 11.08856586 5.90060848 14.125 5.875 C15.69507813 5.84986328 15.69507813 5.84986328 17.296875 5.82421875 C22.59269336 5.79070091 27.0571059 5.82786315 32 8 C32 8.33 32 8.66 32 9 C21.44 9 10.88 9 0 9 C0 6.03 0 3.06 0 0 Z " fill="#1456FA" transform="translate(475,350)"/>
<path d="M0 0 C0.66 0 1.32 0 2 0 C2.1921227 5.47549707 1.99186369 9.86308839 0 15 C-0.99 15.33 -1.98 15.66 -3 16 C-3 11.71 -3 7.42 -3 3 C-2.01 3 -1.02 3 0 3 C0 2.01 0 1.02 0 0 Z " fill="#195AF9" transform="translate(1325,140)"/>
</svg>
